<?xml version="1.0" encoding="utf-8"?>
<!-- Generator: Adobe Illustrator 21.0.0, SVG Export Plug-In . SVG Version: 6.00 Build 0)  -->
<svg version="1.1" id="Warstwa_1_kopia_2" xmlns="http://www.w3.org/2000/svg" xmlns:xlink="http://www.w3.org/1999/xlink" x="0px"
	 y="0px" viewBox="0 0 1200 480" style="enable-background:new 0 0 1200 480;" xml:space="preserve">
<style type="text/css">
	.st0{fill:url(#SVGID_1_);}
	.st1{fill:url(#SVGID_2_);}
	.st2{fill:url(#SVGID_3_);}
	.st3{fill:url(#SVGID_4_);}
	.st4{fill:url(#SVGID_5_);}
	.st5{fill:url(#SVGID_6_);}
</style>
<g>
	<path d="M507.7,275.7l-12.3-19.1l-12,19.1H456l25.8-36l-24.9-35.4h27l12.1,17.9l11.8-17.9h25.9l-24.8,34.4l26.3,36.9H507.7z"/>
	<path d="M568.8,257.8h-6.5v17.9h-24v-71.3h34.3c6.6,0,12.3,1.1,17.2,3.3c4.9,2.2,8.7,5.3,11.3,9.4c2.6,4.1,4,8.8,4,14.3
		c0,5.1-1.2,9.5-3.5,13.3c-2.3,3.8-5.6,6.8-10,9.1l15,22h-25.7L568.8,257.8z M578.3,225.1c-1.6-1.5-4.1-2.2-7.3-2.2h-8.8v16.7h8.8
		c3.3,0,5.7-0.7,7.3-2.2c1.6-1.5,2.4-3.5,2.4-6.2S580,226.6,578.3,225.1z"/>
	<path d="M665.6,207.7c4.9,2.2,8.7,5.3,11.3,9.4c2.6,4.1,4,8.8,4,14.3c0,5.4-1.3,10.2-4,14.3c-2.6,4.1-6.4,7.2-11.3,9.4
		c-4.9,2.2-10.6,3.3-17.2,3.3h-10.3v17.5h-24v-71.3h34.3C655,204.4,660.8,205.5,665.6,207.7z M654.2,237.5c1.6-1.5,2.4-3.5,2.4-6.2
		s-0.8-4.7-2.4-6.2c-1.6-1.5-4.1-2.2-7.3-2.2h-8.8v16.7h8.8C650.2,239.6,652.6,238.9,654.2,237.5z"/>
	<path d="M759.1,204.4v71.3h-19.8l-27.1-32.4v32.4h-23.4v-71.3h19.8l27.1,32.4v-32.4H759.1z"/>
	<path d="M794.7,222.5v12.2h29.8v18.1h-29.8v22.8h-24v-71.3h58v18.1H794.7z"/>
	<path d="M852.3,223h-20.9v-18.6h65.8V223h-20.9v52.7h-24V223z"/>
	<path d="M899.9,273c-2.5-2.5-3.8-5.7-3.8-9.5c0-3.9,1.3-7,3.8-9.4c2.5-2.4,5.8-3.6,9.6-3.6c3.9,0,7.1,1.2,9.6,3.6
		c2.5,2.4,3.8,5.6,3.8,9.4c0,3.9-1.3,7-3.8,9.5c-2.5,2.5-5.8,3.7-9.6,3.7C905.7,276.7,902.5,275.5,899.9,273z"/>
	<path d="M945.3,272.6c-6-3.2-10.8-7.6-14.2-13.2c-3.4-5.7-5.1-12.1-5.1-19.3c0-7.2,1.7-13.6,5.1-19.3c3.4-5.7,8.2-10.1,14.2-13.2
		c6-3.2,12.8-4.7,20.4-4.7c6.9,0,13.1,1.2,18.5,3.7c5.4,2.4,9.9,6,13.4,10.6l-15.2,13.6c-4.4-5.6-9.6-8.4-15.6-8.4
		c-5,0-9.1,1.6-12.1,4.8c-3.1,3.2-4.6,7.6-4.6,13c0,5.4,1.5,9.8,4.6,13c3.1,3.2,7.1,4.8,12.1,4.8c6,0,11.2-2.8,15.6-8.4l15.2,13.6
		c-3.5,4.6-8,8.2-13.4,10.6c-5.4,2.4-11.6,3.7-18.5,3.7C958.2,277.3,951.4,275.8,945.3,272.6z"/>
	<path d="M1019.8,272.6c-6.1-3.2-10.9-7.6-14.4-13.3c-3.5-5.7-5.2-12.1-5.2-19.2s1.7-13.5,5.2-19.2c3.5-5.7,8.3-10.1,14.4-13.3
		c6.1-3.2,13-4.8,20.7-4.8c7.7,0,14.6,1.6,20.7,4.8c6.1,3.2,10.9,7.6,14.4,13.3c3.5,5.7,5.2,12.1,5.2,19.2s-1.7,13.5-5.2,19.2
		c-3.5,5.7-8.3,10.1-14.4,13.3s-13,4.8-20.7,4.8C1032.8,277.3,1025.9,275.7,1019.8,272.6z M1048.6,255.7c2.4-1.5,4.3-3.5,5.8-6.2
		c1.4-2.7,2.1-5.8,2.1-9.4c0-3.6-0.7-6.7-2.1-9.4c-1.4-2.7-3.3-4.8-5.8-6.2c-2.4-1.5-5.1-2.2-8.1-2.2c-3,0-5.7,0.7-8.1,2.2
		c-2.4,1.5-4.3,3.5-5.8,6.2c-1.4,2.7-2.1,5.8-2.1,9.4c0,3.6,0.7,6.7,2.1,9.4c1.4,2.7,3.3,4.8,5.8,6.2c2.4,1.5,5.1,2.2,8.1,2.2
		C1043.5,257.9,1046.2,257.2,1048.6,255.7z"/>
	<path d="M1153.2,275.7l-0.2-32.5l-15.5,26.1h-10.6l-15.5-25v31.4h-21.9v-71.3h19.8l23.2,38l22.6-38h19.8l0.2,71.3H1153.2z"/>
</g>
<linearGradient id="SVGID_1_" gradientUnits="userSpaceOnUse" x1="17.8799" y1="240.1056" x2="424.8811" y2="240.1056">
	<stop  offset="0" style="stop-color:#4505F6"/>
	<stop  offset="1" style="stop-color:#FF00FF"/>
</linearGradient>
<path class="st0" d="M221.6,31.6l180.6,104.2l0,208.5L221.6,448.6L41,344.4V135.9L221.6,31.6 M221.6,6.2L19,123.2v233.9l202.6,117
	l202.6-117l0-233.9L221.6,6.2L221.6,6.2z"/>
<linearGradient id="SVGID_2_" gradientUnits="userSpaceOnUse" x1="17.8799" y1="240.1056" x2="424.8811" y2="240.1056">
	<stop  offset="0" style="stop-color:#4505F6"/>
	<stop  offset="1" style="stop-color:#FF00FF"/>
</linearGradient>
<path class="st1" d="M143.5,201.3v77.5H122l-29.5-35.2v35.2H67.1v-77.5h21.5l29.5,35.2v-35.2H143.5z"/>
<linearGradient id="SVGID_3_" gradientUnits="userSpaceOnUse" x1="17.8799" y1="240.1056" x2="424.8811" y2="240.1056">
	<stop  offset="0" style="stop-color:#4505F6"/>
	<stop  offset="1" style="stop-color:#FF00FF"/>
</linearGradient>
<path class="st2" d="M324.8,221.6h-22.7v-20.3h71.5v20.3h-22.7v57.3h-26.1V221.6z"/>
<linearGradient id="SVGID_4_" gradientUnits="userSpaceOnUse" x1="17.8799" y1="240.1622" x2="424.8811" y2="240.1622">
	<stop  offset="0" style="stop-color:#4505F6"/>
	<stop  offset="1" style="stop-color:#FF00FF"/>
</linearGradient>
<path class="st3" d="M220.7,230.7v6.6h16.1v9.8h-16.1v12.4h-13v-38.7h31.5v9.8H220.7z"/>
<linearGradient id="SVGID_5_" gradientUnits="userSpaceOnUse" x1="19.505" y1="166.8111" x2="422.8816" y2="166.8111">
	<stop  offset="0" style="stop-color:#4505F6"/>
	<stop  offset="1" style="stop-color:#FF00FF"/>
</linearGradient>
<path class="st4" d="M303.9,123.2l-49.7,49.2c-9.2,9.6-19,15.1-32.6,15.1s-23.5-5.5-32.6-15.1l-49.7-49.2h-33.7l64.1,63
	c0,0,8.4,9.5,19.3,15.9c10,5.9,21.2,8.4,32.6,8.4v0c11.6,0,22.7-2.5,32.6-8.4c10.9-6.4,19.3-15.9,19.3-15.9l64.1-63H303.9z"/>
<linearGradient id="SVGID_6_" gradientUnits="userSpaceOnUse" x1="21.505" y1="313.4002" x2="421.8823" y2="313.4002" gradientTransform="matrix(-1 0 0 1 443.1724 0)">
	<stop  offset="0" style="stop-color:#4505F6"/>
	<stop  offset="1" style="stop-color:#FF00FF"/>
</linearGradient>
<path class="st5" d="M139.2,357.1l49.7-49.2c9.2-9.6,19-15.1,32.6-15.1s23.5,5.5,32.6,15.1l49.7,49.2h33.7l-64.1-63
	c0,0-8.4-9.5-19.3-15.9c-10-5.9-21.2-8.4-32.6-8.4v0c-11.6,0-22.7,2.5-32.6,8.4c-10.9,6.4-19.3,15.9-19.3,15.9l-64.1,63H139.2z"/>
</svg>
