<svg xmlns="http://www.w3.org/2000/svg" xmlns:xlink="http://www.w3.org/1999/xlink" version="1.1" id="Warstwa_1_kopia_2" x="0px" y="0px" style="enable-background:new 0 0 968 480;" xml:space="preserve" viewBox="20.8 140.5 922.3 199.2">
<style type="text/css">
	.st0{fill:url(#SVGID_1_);}
	.st1{fill:url(#SVGID_2_);}
	.st2{fill:url(#SVGID_3_);}
	.st3{fill:url(#SVGID_4_);}
	.st4{fill:url(#SVGID_5_);}
	.st5{fill:url(#SVGID_6_);}
</style>
<g>
	<path d="M275.7,275.7l-12.3-19.1l-12,19.1H224l25.8-36l-24.9-35.4h27l12.1,17.9l11.8-17.9h25.9l-24.8,34.4l26.3,36.9H275.7z"/>
	<path d="M336.7,257.8h-6.5v17.9h-24v-71.3h34.3c6.6,0,12.3,1.1,17.2,3.3c4.9,2.2,8.7,5.3,11.3,9.4c2.6,4.1,4,8.8,4,14.3   c0,5.1-1.2,9.5-3.5,13.3c-2.3,3.8-5.6,6.8-10,9.1l15,22h-25.7L336.7,257.8z M346.3,225.1c-1.6-1.5-4.1-2.2-7.3-2.2h-8.8v16.7h8.8   c3.3,0,5.7-0.7,7.3-2.2c1.6-1.5,2.4-3.5,2.4-6.2S348,226.6,346.3,225.1z"/>
	<path d="M433.6,207.7c4.9,2.2,8.7,5.3,11.3,9.4c2.6,4.1,4,8.8,4,14.3c0,5.4-1.3,10.2-4,14.3c-2.6,4.1-6.4,7.2-11.3,9.4   c-4.9,2.2-10.6,3.3-17.2,3.3h-10.3v17.5h-24v-71.3h34.3C423,204.4,428.7,205.5,433.6,207.7z M422.2,237.5c1.6-1.5,2.4-3.5,2.4-6.2   s-0.8-4.7-2.4-6.2c-1.6-1.5-4.1-2.2-7.3-2.2h-8.8v16.7h8.8C418.1,239.6,420.6,238.9,422.2,237.5z"/>
	<path d="M527.1,204.4v71.3h-19.8l-27.1-32.4v32.4h-23.4v-71.3h19.8l27.1,32.4v-32.4H527.1z"/>
	<path d="M562.7,222.5v12.2h29.8v18.1h-29.8v22.8h-24v-71.3h58v18.1H562.7z"/>
	<path d="M620.3,223h-20.9v-18.6h65.8V223h-20.9v52.7h-24V223z"/>
	<path d="M667.9,273c-2.5-2.5-3.8-5.7-3.8-9.5c0-3.9,1.3-7,3.8-9.4c2.5-2.4,5.8-3.6,9.6-3.6c3.9,0,7.1,1.2,9.6,3.6   c2.5,2.4,3.8,5.6,3.8,9.4c0,3.9-1.3,7-3.8,9.5c-2.5,2.5-5.8,3.7-9.6,3.7C673.7,276.7,670.5,275.5,667.9,273z"/>
	<path d="M713.3,272.6c-6-3.2-10.8-7.6-14.2-13.2c-3.4-5.7-5.1-12.1-5.1-19.3c0-7.2,1.7-13.6,5.1-19.3c3.4-5.7,8.2-10.1,14.2-13.2   c6-3.2,12.8-4.7,20.4-4.7c6.9,0,13.1,1.2,18.5,3.7c5.4,2.4,9.9,6,13.4,10.6l-15.2,13.6c-4.4-5.6-9.6-8.4-15.6-8.4   c-5,0-9.1,1.6-12.1,4.8c-3.1,3.2-4.6,7.6-4.6,13c0,5.4,1.5,9.8,4.6,13c3.1,3.2,7.1,4.8,12.1,4.8c6,0,11.2-2.8,15.6-8.4l15.2,13.6   c-3.5,4.6-8,8.2-13.4,10.6c-5.4,2.4-11.6,3.7-18.5,3.7C726.1,277.3,719.4,275.8,713.3,272.6z"/>
	<path d="M787.8,272.6c-6.1-3.2-10.9-7.6-14.4-13.3c-3.5-5.7-5.2-12.1-5.2-19.2s1.7-13.5,5.2-19.2c3.5-5.7,8.3-10.1,14.4-13.3   c6.1-3.2,13-4.8,20.7-4.8c7.7,0,14.6,1.6,20.7,4.8c6.1,3.2,10.9,7.6,14.4,13.3c3.5,5.7,5.2,12.1,5.2,19.2s-1.7,13.5-5.2,19.2   c-3.5,5.7-8.3,10.1-14.4,13.3s-13,4.8-20.7,4.8C800.8,277.3,793.9,275.7,787.8,272.6z M816.6,255.7c2.4-1.5,4.3-3.5,5.8-6.2   c1.4-2.7,2.1-5.8,2.1-9.4c0-3.6-0.7-6.7-2.1-9.4c-1.4-2.7-3.3-4.8-5.8-6.2c-2.4-1.5-5.1-2.2-8.1-2.2c-3,0-5.7,0.7-8.1,2.2   c-2.4,1.5-4.3,3.5-5.8,6.2c-1.4,2.7-2.1,5.8-2.1,9.4c0,3.6,0.7,6.7,2.1,9.4c1.4,2.7,3.3,4.8,5.8,6.2c2.4,1.5,5.1,2.2,8.1,2.2   C811.5,257.9,814.2,257.2,816.6,255.7z"/>
	<path d="M921.2,275.7l-0.2-32.5l-15.5,26.1h-10.6l-15.5-25v31.4h-21.9v-71.3h19.8l23.2,38l22.6-38h19.8l0.2,71.3H921.2z"/>
</g>
<linearGradient id="SVGID_1_" gradientUnits="userSpaceOnUse" x1="20.2992" y1="240.1056" x2="193.6273" y2="240.1056">
	<stop offset="0" style="stop-color:#4505F6"/>
	<stop offset="1" style="stop-color:#FF00FF"/>
</linearGradient>
<path class="st0" d="M107.1,151.3l76.9,44.4l0,88.8l-76.9,44.4l-76.9-44.4v-88.8L107.1,151.3 M107.1,140.5l-86.3,49.8v99.6  l86.3,49.8l86.3-49.8l0-99.6L107.1,140.5L107.1,140.5z"/>
<linearGradient id="SVGID_2_" gradientUnits="userSpaceOnUse" x1="20.2992" y1="240.1056" x2="193.6273" y2="240.1056">
	<stop offset="0" style="stop-color:#4505F6"/>
	<stop offset="1" style="stop-color:#FF00FF"/>
</linearGradient>
<path class="st1" d="M73.8,223.6v33h-9.1l-12.5-15v15H41.3v-33h9.1l12.5,15v-15H73.8z"/>
<linearGradient id="SVGID_3_" gradientUnits="userSpaceOnUse" x1="20.2992" y1="240.1056" x2="193.6273" y2="240.1056">
	<stop offset="0" style="stop-color:#4505F6"/>
	<stop offset="1" style="stop-color:#FF00FF"/>
</linearGradient>
<path class="st2" d="M151,232.2h-9.7v-8.6h30.5v8.6h-9.7v24.4H151V232.2z"/>
<linearGradient id="SVGID_4_" gradientUnits="userSpaceOnUse" x1="20.2992" y1="240.1297" x2="193.6273" y2="240.1297">
	<stop offset="0" style="stop-color:#4505F6"/>
	<stop offset="1" style="stop-color:#FF00FF"/>
</linearGradient>
<path class="st3" d="M106.7,236.1v2.8h6.9v4.2h-6.9v5.3h-5.6v-16.5h13.4v4.2H106.7z"/>
<linearGradient id="SVGID_5_" gradientUnits="userSpaceOnUse" x1="20.9914" y1="208.892" x2="192.7757" y2="208.892">
	<stop offset="0" style="stop-color:#4505F6"/>
	<stop offset="1" style="stop-color:#FF00FF"/>
</linearGradient>
<path class="st4" d="M142.1,190.3L121,211.2c-3.9,4.1-8.1,6.4-13.9,6.4s-10-2.3-13.9-6.4L72,190.3H57.6l27.3,26.8c0,0,3.6,4,8.2,6.8  c4.2,2.5,9,3.6,13.9,3.6v0c4.9,0,9.7-1.1,13.9-3.6c4.6-2.7,8.2-6.8,8.2-6.8l27.3-26.8H142.1z"/>
<linearGradient id="SVGID_6_" gradientUnits="userSpaceOnUse" x1="-213.1048" y1="271.3193" x2="-42.5977" y2="271.3193" gradientTransform="matrix(-1 0 0 1 -20.8461 0)">
	<stop offset="0" style="stop-color:#4505F6"/>
	<stop offset="1" style="stop-color:#FF00FF"/>
</linearGradient>
<path class="st5" d="M72,289.9L93.1,269c3.9-4.1,8.1-6.4,13.9-6.4s10,2.3,13.9,6.4l21.2,20.9h14.4l-27.3-26.8c0,0-3.6-4-8.2-6.8  c-4.2-2.5-9-3.6-13.9-3.6v0c-4.9,0-9.7,1.1-13.9,3.6c-4.6,2.7-8.2,6.8-8.2,6.8l-27.3,26.8H72z"/>
</svg>